<svg xmlns="http://www.w3.org/2000/svg" width="1134.339" height="588.923" viewBox="0 0 1134.339 588.923">
    <defs>
        <style>
            .prefix__cls-1,.prefix__cls-2,.prefix__cls-3{fill:none;stroke:#ecebf3;stroke-linecap:round;stroke-linejoin:round;stroke-width:2px}.prefix__cls-1{stroke-dasharray:5 5}.prefix__cls-3{stroke-dasharray:6 4}
        </style>
    </defs>
    <g id="prefix__Composant_20_2" data-name="Composant 20 – 2" transform="translate(1 .981)">
        <path id="prefix__Ligne_409" d="M0 0L0 79.824" class="prefix__cls-1" data-name="Ligne 409" transform="translate(271.053 322.884)"/>
        <path id="prefix__Tracé_923" d="M273.61 449.78h-68.851c-27.068 0-48.963 17.707-51.64 44.048" class="prefix__cls-1" data-name="Tracé 923" transform="translate(118.576 -252.619)"/>
        <path id="prefix__Tracé_924" d="M311.567 407.663h-22.345a52.111 52.111 0 0 0-52.132 52.089v4.122" class="prefix__cls-1" data-name="Tracé 924" transform="translate(208.325 -297.562)"/>
        <path id="prefix__Tracé_925" d="M516.771 608.275h-34.643a49.577 49.577 0 0 1-49.6-49.557v-98.966a52.111 52.111 0 0 0-52.128-52.089h-47.892" class="prefix__cls-1" data-name="Tracé 925" transform="translate(310.308 -297.562)"/>
        <path id="prefix__Tracé_926" d="M509.144 694.964V558.191a53.5 53.5 0 0 0-53.024-53.478" class="prefix__cls-1" data-name="Tracé 926" transform="translate(442.426 -193.999)"/>
        <path id="prefix__Tracé_927" d="M139.309 505.428a14.815 14.815 0 1 1 5.232 28.673H49.926" class="prefix__cls-1" data-name="Tracé 927" transform="translate(8.282 -194.248)"/>
        <path id="prefix__Tracé_928" d="M210.675 475.827a35.763 35.763 0 1 1 0-71.526h106.389a11.862 11.862 0 1 0-4.191-22.964" class="prefix__cls-1" data-name="Tracé 928" transform="translate(141.837 -326.467)"/>
        <path id="prefix__Tracé_929" d="M261.98 355.125a17.774 17.774 0 1 0-5.044 34.814A19.159 19.159 0 0 1 276.1 409.09v4.837" class="prefix__cls-2" data-name="Tracé 929" transform="translate(210.529 -354.4)"/>
        <path id="prefix__Tracé_930" d="M418.882 395.255a24.575 24.575 0 0 1 24.58 25.027c-.248 13.523-11.858 24.1-25.4 24.1a21.24 21.24 0 0 0-21.247 21.231v3.334" class="prefix__cls-1" data-name="Tracé 930" transform="translate(379.043 -310.803)"/>
        <path id="prefix__Tracé_931" d="M419.866 427.411a14.992 14.992 0 1 0 0 29.983H572.25a36.666 36.666 0 1 1 0 73.331" class="prefix__cls-2" data-name="Tracé 931" transform="translate(387.64 -276.489)"/>
        <path id="prefix__Tracé_932" d="M500.2 477.391h-15.819a13.547 13.547 0 1 0 0 27.094h120.4" class="prefix__cls-1" data-name="Tracé 932" transform="translate(458.139 -223.154)"/>
        <ellipse id="prefix__Ellipse_101" cx="6.688" cy="6.683" class="prefix__cls-2" data-name="Ellipse 101" rx="6.688" ry="6.683" transform="translate(773.693 62.056)"/>
        <path id="prefix__Tracé_933" d="M397.369 369.8a12.068 12.068 0 0 0-23.349.159 12.069 12.069 0 1 0-2.766 23.813h24.162a12.064 12.064 0 0 0 1.953-23.972z" class="prefix__cls-2" data-name="Tracé 933" transform="translate(338.808 -347.494)"/>
        <path id="prefix__Tracé_934" d="M374.012 459.782a12.068 12.068 0 0 0-23.349.159 12.069 12.069 0 1 0-2.768 23.813h24.164a12.064 12.064 0 0 0 1.953-23.972z" class="prefix__cls-2" data-name="Tracé 934" transform="translate(313.841 -251.477)"/>
        <path id="prefix__Tracé_935" d="M330.9 493.684a20.328 20.328 0 1 1 0-40.656h31.61a6.344 6.344 0 1 0 0-12.688h-2.381" class="prefix__cls-2" data-name="Tracé 935" transform="translate(286.844 -262.692)"/>
        <ellipse id="prefix__Ellipse_102" cx="10.697" cy="10.688" class="prefix__cls-2" data-name="Ellipse 102" rx="10.697" ry="10.688" transform="translate(558.726 225.557)"/>
        <ellipse id="prefix__Ellipse_103" cx="4.972" cy="4.968" class="prefix__cls-2" data-name="Ellipse 103" rx="4.972" ry="4.968" transform="translate(548.169 217.976)"/>
        <g id="prefix__Groupe_435" data-name="Groupe 435" transform="translate(530.862 70.364)">
            <path id="prefix__Tracé_936" d="M347 454.691a39.489 39.489 0 1 1 5.613-45.7" class="prefix__cls-2" data-name="Tracé 936" transform="translate(-278.392 -388.44)"/>
            <path id="prefix__Tracé_937" d="M341.555 394.591a39.552 39.552 0 0 1-58.1 0" class="prefix__cls-2" data-name="Tracé 937" transform="translate(-272.978 -381.876)"/>
            <path id="prefix__Tracé_938" d="M341.555 427.037a39.55 39.55 0 0 0-58.1 0" class="prefix__cls-2" data-name="Tracé 938" transform="translate(-272.978 -360.814)"/>
            <path id="prefix__Tracé_939" d="M327.587 427.936c0 21.814-20 39.5-20 39.5s-20-17.684-20-39.5 20-39.5 20-39.5 20 17.688 20 39.5z" class="prefix__cls-2" data-name="Tracé 939" transform="translate(-268.563 -388.44)"/>
            <path id="prefix__Ligne_410" d="M0 0L0 78.994" class="prefix__cls-2" data-name="Ligne 410" transform="translate(39.53)"/>
            <path id="prefix__Tracé_940" d="M313.9 449.467s22.86 7.192 33.85-10.784.517-44.964.517-44.964-26.522 3.909-35.013 17.914-3.554 31.167.646 37.834z" class="prefix__cls-2" data-name="Tracé 940" transform="translate(-246.104 -382.807)"/>
            <path id="prefix__Ligne_411" d="M0 34.695L21.986 0" class="prefix__cls-2" data-name="Ligne 411" transform="translate(67.794 31.966)"/>
            <path id="prefix__Ligne_412" d="M0 0L63.073 0" class="prefix__cls-2" data-name="Ligne 412" transform="translate(0 39.497)"/>
        </g>
        <path id="prefix__Tracé_941" d="M229.3 509.648c2.758 2.164 4.249 2.667 7.454 4.1a1.508 1.508 0 0 0 2-.825l1.15-2.83a2.453 2.453 0 0 1 3.037-1.42q1.424.474 2.9.829a2.453 2.453 0 0 1 1.821 2.822l-.536 3.006a1.516 1.516 0 0 0 1.258 1.767 43.275 43.275 0 0 0 10.466.2 1.5 1.5 0 0 0 1.316-1.705l-.424-3.051a2.45 2.45 0 0 1 1.92-2.747q1.486-.3 2.927-.728a2.451 2.451 0 0 1 2.985 1.53l1.055 2.9a1.509 1.509 0 0 0 1.967.9 43.015 43.015 0 0 0 9.154-5.079 1.507 1.507 0 0 0 .283-2.142l-1.9-2.423a2.45 2.45 0 0 1 .288-3.347q1.133-1 2.178-2.09a2.455 2.455 0 0 1 3.347-.159l2.35 1.974a1.51 1.51 0 0 0 2.154-.209 42.688 42.688 0 0 0 5.387-8.98 1.506 1.506 0 0 0-.832-1.995l-2.84-1.139a2.45 2.45 0 0 1-1.432-3.03q.469-1.426.821-2.9a2.454 2.454 0 0 1 2.818-1.827l3.012.525a1.515 1.515 0 0 0 1.763-1.261 43.258 43.258 0 0 0 .166-10.46 1.5 1.5 0 0 0-1.713-1.311l-3.054.434a2.454 2.454 0 0 1-2.756-1.908q-.307-1.485-.736-2.923a2.452 2.452 0 0 1 1.521-2.989l2.892-1.06a1.508 1.508 0 0 0 .892-1.968 42.946 42.946 0 0 0-5.114-9.133 1.51 1.51 0 0 0-2.145-.275l-2.439 1.916a2.47 2.47 0 0 1-3.376-.345q-.788-.878-1.632-1.7a2.466 2.466 0 0 1-.2-3.384l2.023-2.359a1.507 1.507 0 0 0-.184-2.152 42.85 42.85 0 0 0-8.929-5.476 1.51 1.51 0 0 0-2 .81l-1.165 2.813a2.455 2.455 0 0 1-3.045 1.4q-1.424-.484-2.9-.85a2.452 2.452 0 0 1-1.8-2.834l.554-3a1.506 1.506 0 0 0-1.241-1.769 43.746 43.746 0 0 0-10.462-.273 1.507 1.507 0 0 0-1.332 1.7l.4 3.045a2.451 2.451 0 0 1-1.936 2.733q-1.49.295-2.934.709a2.454 2.454 0 0 1-2.977-1.55l-1.03-2.9a1.512 1.512 0 0 0-1.963-.91 42.978 42.978 0 0 0-9.19 5.015 1.507 1.507 0 0 0-.3 2.142l1.881 2.439a2.451 2.451 0 0 1-.31 3.343q-1.139.992-2.191 2.075a2.455 2.455 0 0 1-3.349.136l-2.343-1.995a1.508 1.508 0 0 0-2.154.19 42.681 42.681 0 0 0-5.451 8.942 1.508 1.508 0 0 0 .817 2l2.826 1.156a2.451 2.451 0 0 1 1.411 3.039q-.478 1.426-.842 2.9a2.453 2.453 0 0 1-2.828 1.811l-3-.544a1.512 1.512 0 0 0-1.773 1.249 72.266 72.266 0 0 0-.447 8.029m46.434 17.3a19.427 19.427 0 1 1 15.866-15.851 19.458 19.458 0 0 1-15.868 15.843z" class="prefix__cls-2" data-name="Tracé 941" transform="translate(180.746 -272.319)"/>
        <path id="prefix__Tracé_942" d="M243.762 480.462a.813.813 0 0 0 .948-.678 23.089 23.089 0 0 0 .089-5.625.807.807 0 0 0-.921-.7l-1.641.232a1.317 1.317 0 0 1-1.481-1.025q-.168-.8-.4-1.571a1.318 1.318 0 0 1 .819-1.608l1.554-.571a.81.81 0 0 0 .48-1.058 23.109 23.109 0 0 0-2.751-4.909.813.813 0 0 0-1.152-.149L238 463.828a1.326 1.326 0 0 1-1.814-.186c-.283-.314-.575-.618-.879-.914a1.328 1.328 0 0 1-.11-1.819l1.088-1.269a.81.81 0 0 0-.1-1.158 23.136 23.136 0 0 0-4.8-2.944.815.815 0 0 0-1.08.436l-.627 1.513a1.319 1.319 0 0 1-1.636.753q-.767-.261-1.56-.459a1.317 1.317 0 0 1-.968-1.521l.3-1.614a.81.81 0 0 0-.666-.951 23.515 23.515 0 0 0-5.627-.147.81.81 0 0 0-.716.914l.215 1.637a1.318 1.318 0 0 1-1.041 1.47c-.534.105-1.061.234-1.578.382a1.319 1.319 0 0 1-1.6-.835l-.554-1.559a.812.812 0 0 0-1.055-.488 23.126 23.126 0 0 0-4.942 2.7.809.809 0 0 0-.159 1.151l1.01 1.311a1.318 1.318 0 0 1-.165 1.8q-.611.533-1.177 1.114a1.32 1.32 0 0 1-1.8.074l-1.26-1.071a.812.812 0 0 0-1.159.1 23.036 23.036 0 0 0-2.929 4.808.811.811 0 0 0 .439 1.077l1.518.622a1.315 1.315 0 0 1 .759 1.633c-.172.511-.323 1.031-.451 1.559a1.32 1.32 0 0 1-1.523.974l-1.614-.291a.814.814 0 0 0-.954.672 23.388 23.388 0 0 0-.24 3.336 22.792 22.792 0 0 0 .114 2.284.807.807 0 0 0 .914.711l1.643-.223a1.322 1.322 0 0 1 1.475 1.038c.105.531.236 1.056.385 1.573a1.315 1.315 0 0 1-.83 1.6l-1.558.56a.808.808 0 0 0-.486 1.054 23.111 23.111 0 0 0 2.716 4.93.812.812 0 0 0 1.152.155l1.307-1.013a1.321 1.321 0 0 1 1.8.159q.537.611 1.121 1.174a1.319 1.319 0 0 1 .081 1.8l-1.068 1.263a.808.808 0 0 0 .108 1.156 23 23 0 0 0 4.82 2.91.813.813 0 0 0 1.076-.442l.619-1.521a1.318 1.318 0 0 1 1.632-.765c.511.169 1.032.318 1.56.446A1.318 1.318 0 0 1 218.1 497l-.288 1.617a.814.814 0 0 0 .676.949 23.166 23.166 0 0 0 5.627.107.806.806 0 0 0 .708-.916l-.228-1.641a1.32 1.32 0 0 1 1.032-1.478c.534-.108 1.057-.238 1.574-.391a1.318 1.318 0 0 1 1.605.823l.567 1.557a.809.809 0 0 0 1.057.482 23.082 23.082 0 0 0 4.924-2.731.812.812 0 0 0 .151-1.151l-1.02-1.3a1.318 1.318 0 0 1 .155-1.8q.611-.54 1.173-1.125a1.319 1.319 0 0 1 1.8-.087l1.266 1.062a.812.812 0 0 0 1.156-.112 23.007 23.007 0 0 0 2.9-4.829.811.811 0 0 0-.447-1.073l-1.527-.612a1.317 1.317 0 0 1-.77-1.629c.168-.513.314-1.032.441-1.561a1.32 1.32 0 0 1 1.514-.984zm-20.256 6.451a10.446 10.446 0 1 1 8.53-8.523 10.463 10.463 0 0 1-8.53 8.524z" class="prefix__cls-2" data-name="Tracé 942" transform="translate(167.12 -248.708)"/>
        <path id="prefix__Tracé_943" d="M114.572 478.363a12.069 12.069 0 0 0-23.349.159 12.069 12.069 0 1 0-2.768 23.813h24.164a12.064 12.064 0 0 0 1.953-23.972z" class="prefix__cls-2" data-name="Tracé 943" transform="translate(36.552 -231.647)"/>
        <ellipse id="prefix__Ellipse_104" cx="21.018" cy="21.001" class="prefix__cls-2" data-name="Ellipse 104" rx="21.018" ry="21.001" transform="translate(339.987 345.05)"/>
        <ellipse id="prefix__Ellipse_105" cx="10.509" cy="10.5" class="prefix__cls-2" data-name="Ellipse 105" rx="10.509" ry="10.5" transform="translate(89.211 431.969)"/>
        <g id="prefix__Groupe_436" data-name="Groupe 436" transform="translate(195.58 233.514)">
            <path id="prefix__Tracé_944" d="M168.379 499.512a1.978 1.978 0 0 1-1.833 2.987l-13.232-.037v-7.886l-12.473 20.415 12.473 20.917V527.7h13.52c.07 0 .141-.012.213-.019a10.555 10.555 0 0 0 8.635-5.55l2.853-5.354z" class="prefix__cls-2" data-name="Tracé 944" transform="translate(-90.127 -438.33)"/>
            <path id="prefix__Tracé_945" d="M159.769 512.706l9.936 16.82 10.895-20.442a7.949 7.949 0 0 0-.188-7.81l-11.12-18.645-20.192 12.018z" class="prefix__cls-2" data-name="Tracé 945" transform="translate(-81.298 -451.078)"/>
            <path id="prefix__Tracé_946" d="M141.082 515.689a1.979 1.979 0 0 1-1.647-3.094l6.744-11.373 6.8 4-11.279-21.1-24.368.128 7.079 4.163-1.078 1.829L118 499.3l-.447.759c-.033.064-.06.13-.093.192a10.551 10.551 0 0 0 .408 10.255l3.169 5.17z" class="prefix__cls-2" data-name="Tracé 946" transform="translate(-116.327 -449.483)"/>
            <path id="prefix__Tracé_947" d="M138.151 499.388l-19.546.021 12.1 19.749a7.959 7.959 0 0 0 6.831 3.8l21.722-.114-.122-23.48z" class="prefix__cls-2" data-name="Tracé 947" transform="translate(-113.893 -433.219)"/>
            <path id="prefix__Tracé_948" d="M167.325 476.428l-1.7-3.146-.42-.775c-.035-.062-.079-.118-.116-.18a10.567 10.567 0 0 0-8.989-4.961l-6.07.031-10.392 17.122a1.98 1.98 0 0 1 3.5.2l6.246 11.654-6.949 3.741 23.905 1.288 12.51-20.9-7.233 3.894-1.008-1.869-3.289-6.1" class="prefix__cls-2" data-name="Tracé 948" transform="translate(-91.409 -467.366)"/>
            <path id="prefix__Tracé_949" d="M155.8 484.1l10.1-16.719-23.175.116a7.961 7.961 0 0 0-6.792 3.872L124.789 490l20.167 12.055z" class="prefix__cls-2" data-name="Tracé 949" transform="translate(-107.284 -467.35)"/>
        </g>
        <g id="prefix__Groupe_437" data-name="Groupe 437" transform="translate(835.395 272.179)">
            <path id="prefix__Rectangle_135" d="M0 0H27.477V9.994H0z" class="prefix__cls-2" data-name="Rectangle 135" transform="translate(13.979 69.84)"/>
            <path id="prefix__Rectangle_136" d="M0 0H27.477V10.356H0z" class="prefix__cls-2" data-name="Rectangle 136" transform="translate(13.979 59.484)"/>
            <path id="prefix__Tracé_950" d="M482.477 514.488a28.441 28.441 0 1 0-42.9 24.44v6.627h27.478v-5.817a28.393 28.393 0 0 0 15.422-25.25z" class="prefix__cls-2" data-name="Tracé 950" transform="translate(-425.595 -486.071)"/>
        </g>
        <path id="prefix__Tracé_951" d="M454.332 525.194a10.914 10.914 0 0 1-19.84-.5" class="prefix__cls-2" data-name="Tracé 951" transform="translate(419.309 -172.679)"/>
        <path id="prefix__Ligne_413" d="M0 0L9.4 36.004" class="prefix__cls-2" data-name="Ligne 413" transform="translate(849.375 295.66)"/>
        <path id="prefix__Ligne_414" d="M9.4 0L0 36.004" class="prefix__cls-2" data-name="Ligne 414" transform="translate(866.53 295.66)"/>
        <path id="prefix__Ligne_415" d="M0 0L21.689 0" class="prefix__cls-2" data-name="Ligne 415" transform="translate(851.953 305.534)"/>
        <path id="prefix__Ligne_416" d="M0 8.911L0 0" class="prefix__cls-3" data-name="Ligne 416" transform="translate(862.797 256.405)"/>
        <path id="prefix__Ligne_417" d="M8.918 0L0 0" class="prefix__cls-3" data-name="Ligne 417" transform="translate(815.39 295.66)"/>
        <path id="prefix__Ligne_418" d="M0 0L8.918 0" class="prefix__cls-3" data-name="Ligne 418" transform="translate(901.286 295.66)"/>
        <path id="prefix__Ligne_419" d="M7.183 0L0 5.281" class="prefix__cls-3" data-name="Ligne 419" transform="translate(819.402 319.617)"/>
        <path id="prefix__Ligne_420" d="M0 5.281L7.183 0" class="prefix__cls-3" data-name="Ligne 420" transform="translate(888.591 268.756)"/>
        <path id="prefix__Ligne_421" d="M0 0L7.183 5.281" class="prefix__cls-3" data-name="Ligne 421" transform="translate(899.008 319.617)"/>
        <path id="prefix__Ligne_422" d="M7.183 5.281L0 0" class="prefix__cls-3" data-name="Ligne 422" transform="translate(829.82 268.756)"/>
        <path id="prefix__Tracé_952" d="M554.053 554.733a12.068 12.068 0 0 0-23.349.159 12.069 12.069 0 1 0-2.766 23.813H552.1a12.064 12.064 0 0 0 1.953-23.972z" class="prefix__cls-2" data-name="Tracé 952" transform="translate(506.273 -150.153)"/>
        <ellipse id="prefix__Ellipse_106" cx="11.834" cy="11.825" class="prefix__cls-2" data-name="Ellipse 106" rx="11.834" ry="11.825" transform="translate(901.463 389.095)"/>
        <g id="prefix__Groupe_438" data-name="Groupe 438" transform="translate(1025.685 543.773)">
            <ellipse id="prefix__Ellipse_107" cx="14.913" cy="14.901" class="prefix__cls-2" data-name="Ellipse 107" rx="14.913" ry="14.901" transform="translate(0 13.366)"/>
            <ellipse id="prefix__Ellipse_108" cx="14.913" cy="14.901" class="prefix__cls-2" data-name="Ellipse 108" rx="14.913" ry="14.901" transform="translate(48.175 13.366)"/>
            <path id="prefix__Tracé_953" d="M538.421 622.614l-14.642 17.611h27.477z" class="prefix__cls-2" data-name="Tracé 953" transform="translate(-510.945 -611.958)"/>
            <path id="prefix__Tracé_954" d="M553.634 622.614h-22.777l12.835 17.611z" class="prefix__cls-2" data-name="Tracé 954" transform="translate(-503.38 -611.958)"/>
            <path id="prefix__Tracé_955" d="M524.784 621.432v-.876a3.1 3.1 0 0 1 3.1-3.1h8.561" class="prefix__cls-2" data-name="Tracé 955" transform="translate(-509.87 -617.459)"/>
            <path id="prefix__Ligne_423" d="M7.773 10.657L0 0" class="prefix__cls-2" data-name="Ligne 423" transform="translate(19.704)"/>
            <path id="prefix__Tracé_956" d="M550.395 624.142h1.9a3.342 3.342 0 0 0 3.343-3.343 3.342 3.342 0 0 0-3.343-3.34h-14.01l20.245 28.268" class="prefix__cls-2" data-name="Tracé 956" transform="translate(-495.442 -617.459)"/>
        </g>
        <path id="prefix__Tracé_957" d="M529.271 614.626L505.863 594.5a6.221 6.221 0 0 0-8.124.012l-46.921 40.563v7.76a2.456 2.456 0 0 0 4.078 1.844l9.777-8.593 33.018-29.014a6.222 6.222 0 0 1 8.209 0l19.976 17.528" class="prefix__cls-2" data-name="Tracé 957" transform="translate(436.759 -99.79)"/>
        <path id="prefix__Ligne_424" d="M0 48.228L0 0" class="prefix__cls-2" data-name="Ligne 424" transform="translate(900.412 538.715)"/>
        <path id="prefix__Tracé_958" d="M463.138 655.126v-32.512h19.7v32.512" class="prefix__cls-2" data-name="Tracé 958" transform="translate(449.927 -68.184)"/>
        <path id="prefix__Tracé_959" d="M500.134 623.964V634.2H478.08v-19.188h18.658" class="prefix__cls-2" data-name="Tracé 959" transform="translate(465.897 -76.297)"/>
        <path id="prefix__Ligne_425" d="M0 0L0 19.193" class="prefix__cls-2" data-name="Ligne 425" transform="translate(955.004 538.715)"/>
        <path id="prefix__Ligne_426" d="M0 0L0 4.877" class="prefix__cls-2" data-name="Ligne 426" transform="translate(918.85 569.603)"/>
        <g id="prefix__Groupe_439" data-name="Groupe 439" transform="translate(962.635 499.78)">
            <ellipse id="prefix__Ellipse_109" cx="32.409" cy="32.383" class="prefix__cls-2" data-name="Ellipse 109" rx="32.409" ry="32.383"/>
            <path id="prefix__Tracé_960" d="M529.423 613.352a27.828 27.828 0 0 0-27.838 27.815v23.842" class="prefix__cls-2" data-name="Tracé 960" transform="translate(-471.616 -577.847)"/>
            <path id="prefix__Tracé_961" d="M512.848 621.072s-.7-9.211-8.292-11.739" class="prefix__cls-2" data-name="Tracé 961" transform="translate(-468.441 -582.136)"/>
            <path id="prefix__Tracé_962" d="M494.07 617.459s12.475 1.083 15.547 13.366v7.948" class="prefix__cls-2" data-name="Tracé 962" transform="translate(-479.648 -573.465)"/>
        </g>
        <path id="prefix__Tracé_963" d="M494.07 647.835a9.617 9.617 0 1 0 0-19.235" class="prefix__cls-2" data-name="Tracé 963" transform="translate(482.987 -61.797)"/>
        <path id="prefix__Ligne_427" d="M0 0L0 27.593" class="prefix__cls-2" data-name="Ligne 427" transform="translate(976.124 558.447)"/>
        <path id="prefix__Tracé_964" d="M408.591 590.505l-.8-.568-.8.568c-5.275 3.833-21.706 17.4-21.706 37.719 0 23.83 18.565 27 22.415 27.09h.182c3.85-.093 22.415-3.26 22.415-27.09.003-20.324-16.43-33.886-21.706-37.719z" class="prefix__cls-2" data-name="Tracé 964" transform="translate(366.716 -103.055)"/>
        <path id="prefix__Ligne_428" d="M0 0L0 36.943" class="prefix__cls-2" data-name="Ligne 428" transform="translate(783.229 549.999)"/>
        <path id="prefix__Ligne_429" d="M0 0L0 34.679" class="prefix__cls-2" data-name="Ligne 429" transform="translate(774.596 552.263)"/>
        <path id="prefix__Ligne_430" d="M0 76.814L0 0" class="prefix__cls-2" data-name="Ligne 430" transform="translate(774.506 410.068)"/>
        <path id="prefix__Tracé_965" d="M396.55 600.484l7.062-19.9H534.54l11.761 35.33" class="prefix__cls-2" data-name="Tracé 965" transform="translate(378.757 -113.034)"/>
        <path id="prefix__Ligne_431" d="M0 0L123.386 0" class="prefix__cls-2" data-name="Ligne 431" transform="translate(793.475 509.14)"/>
        <path id="prefix__Ligne_432" d="M0 0L111.896 0" class="prefix__cls-2" data-name="Ligne 432" transform="translate(797.012 515.416)"/>
        <path id="prefix__Tracé_966" d="M421.938 587.568l-.437-.307-.437.307-11.314 7.932h4.881v9.212h13.739V595.5h4.881z" class="prefix__cls-2" data-name="Tracé 966" transform="translate(392.865 -105.91)"/>
        <path id="prefix__Tracé_967" d="M456.015 587.568l-.437-.307-.437.307-11.313 7.932h4.881v9.212h13.738V595.5h4.881z" class="prefix__cls-2" data-name="Tracé 967" transform="translate(429.288 -105.91)"/>
        <path id="prefix__Tracé_968" d="M454.46 613.352h-7.05v25.829h19.885" class="prefix__cls-2" data-name="Tracé 968" transform="translate(433.117 -78.068)"/>
        <path id="prefix__Ligne_433" d="M0 0L19.885 0" class="prefix__cls-2" data-name="Ligne 433" transform="translate(880.527 548.311)"/>
        <path id="prefix__Tracé_969" d="M419.876 613.352h7.05v25.829h-19.884v-25.829z" class="prefix__cls-2" data-name="Tracé 969" transform="translate(389.97 -78.068)"/>
        <path id="prefix__Ligne_434" d="M19.885 0L0 0" class="prefix__cls-2" data-name="Ligne 434" transform="translate(797.012 548.311)"/>
        <path id="prefix__Ligne_435" d="M0 0L0 70.182" class="prefix__cls-2" data-name="Ligne 435" transform="translate(831.177 515.416)"/>
        <path id="prefix__Ligne_436" d="M0 0L0 69.459" class="prefix__cls-2" data-name="Ligne 436" transform="translate(866.427 515.416)"/>
        <path id="prefix__Rectangle_137" d="M0 0H19.523V24.697H0z" class="prefix__cls-2" data-name="Rectangle 137" transform="translate(839.312 543.774)"/>
        <path id="prefix__Rectangle_138" d="M0 0H19.523V14.153H0z" class="prefix__cls-2" data-name="Rectangle 138" transform="translate(839.312 524.561)"/>
        <ellipse id="prefix__Ellipse_110" cx="40.363" cy="40.331" class="prefix__cls-2" data-name="Ellipse 110" rx="40.363" ry="40.331" transform="translate(669.608 443.9)"/>
        <path id="prefix__Tracé_970" d="M392.6 598.7a57.9 57.9 0 0 0-39.907 55.014V679.3" class="prefix__cls-2" data-name="Tracé 970" transform="translate(331.881 -93.707)"/>
        <path id="prefix__Tracé_971" d="M370.279 586.44s-12.744 3.25-9.852 19.146" class="prefix__cls-2" data-name="Tracé 971" transform="translate(339.692 -106.786)"/>
        <path id="prefix__Tracé_972" d="M351.032 589.5s24.12 6.683 24.443 29.442" class="prefix__cls-2" data-name="Tracé 972" transform="translate(330.107 -103.523)"/>
        <ellipse id="prefix__Ellipse_111" cx="21.873" cy="21.855" class="prefix__cls-2" data-name="Ellipse 111" rx="21.873" ry="21.855" transform="translate(635.946 497.717)"/>
        <path id="prefix__Tracé_973" d="M339.76 606.624s23.14 5.959 26.754 31.97v10.114" class="prefix__cls-2" data-name="Tracé 973" transform="translate(318.059 -85.248)"/>
        <g id="prefix__Groupe_440" data-name="Groupe 440" transform="translate(607.204 541.225)">
            <path id="prefix__Ligne_437" d="M40.492 0L0 0" class="prefix__cls-2" data-name="Ligne 437" transform="translate(0 7.086)"/>
            <path id="prefix__Ligne_438" d="M3.615 37.287L0 0" class="prefix__cls-2" data-name="Ligne 438" transform="translate(4.158 7.086)"/>
            <path id="prefix__Ligne_439" d="M0 0L2.712 24.203" class="prefix__cls-2" data-name="Ligne 439" transform="translate(11.388 13.566)"/>
            <path id="prefix__Ligne_440" d="M0 0L0 25.106" class="prefix__cls-2" data-name="Ligne 440" transform="translate(20.246 12.663)"/>
            <path id="prefix__Tracé_974" d="M322.542 621.836a5.615 5.615 0 0 1 11.229 0" class="prefix__cls-2" data-name="Tracé 974" transform="translate(-307.548 -616.226)"/>
        </g>
        <g id="prefix__Groupe_441" data-name="Groupe 441" transform="translate(633.596 548.311)">
            <path id="prefix__Ligne_441" d="M0 37.287L3.615 0" class="prefix__cls-2" data-name="Ligne 441" transform="translate(6.327)"/>
            <path id="prefix__Ligne_442" d="M2.712 0L0 24.203" class="prefix__cls-2" data-name="Ligne 442" transform="translate(0 6.481)"/>
        </g>
        <path id="prefix__Tracé_975" d="M318.788 656.046s11.389-1.906 11.389-14.369-13.557-20.772-13.557-20.772-13.559 8.31-13.559 20.772 11.389 14.369 11.389 14.369z" class="prefix__cls-2" data-name="Tracé 975" transform="translate(278.835 -70.008)"/>
        <path id="prefix__Tracé_976" d="M305.41 656.331s15.353-2.569 15.353-19.371-18.276-28-18.276-28-18.278 11.2-18.278 28 15.353 19.371 15.353 19.371z" class="prefix__cls-2" data-name="Tracé 976" transform="translate(258.686 -82.756)"/>
        <g id="prefix__Groupe_442" data-name="Groupe 442" transform="translate(561.173 361.441)">
            <path id="prefix__Tracé_977" d="M327.326 645.038s-25.064 0-34.282-10.958v-93.562s11.143-12.1 34.282-11.2z" data-name="Tracé 977" transform="translate(-293.044 -529.234)" style="fill:none;stroke:#ecebf3"/>
            <path id="prefix__Tracé_978" d="M326.426 590.28s-23.5.24-32.54-9.695l12.169 25.815" class="prefix__cls-2" data-name="Tracé 978" transform="translate(-292.144 -474.475)"/>
            <path id="prefix__Tracé_979" d="M327.326 529.338s-24.819-1.807-34.282 11.2" class="prefix__cls-2" data-name="Tracé 979" transform="translate(-293.044 -529.253)"/>
        </g>
        <path id="prefix__Tracé_980" d="M298.43 558.653s23.14 9.573 23.14 27.455" class="prefix__cls-2" data-name="Tracé 980" transform="translate(273.885 -136.438)"/>
        <path id="prefix__Tracé_981" d="M320.262 576.3s-20.609 15.536-20.609 39.015v41.987" class="prefix__cls-2" data-name="Tracé 981" transform="translate(275.193 -117.603)"/>
        <path id="prefix__Tracé_982" d="M309.615 744.457V504.712h104.238v134.282" class="prefix__cls-2" data-name="Tracé 982" transform="translate(285.839 -194)"/>
        <path id="prefix__Ligne_443" d="M0 0L121.236 0" class="prefix__cls-2" data-name="Ligne 443" transform="translate(586.174 355.747)"/>
        <path id="prefix__Rectangle_139" d="M0 0H19.403V19.387H0z" class="prefix__cls-2" data-name="Rectangle 139" transform="translate(616.544 355.747)"/>
        <path id="prefix__Rectangle_140" d="M0 0H19.403V19.387H0z" class="prefix__cls-2" data-name="Rectangle 140" transform="rotate(-180 338.52 187.566)"/>
        <path id="prefix__Ligne_444" d="M0 0L113.518 0" class="prefix__cls-2" data-name="Ligne 444" transform="translate(586.174 393.015)"/>
        <path id="prefix__Rectangle_141" d="M0 0H19.403V19.387H0z" class="prefix__cls-2" data-name="Rectangle 141" transform="translate(616.544 393.015)"/>
        <path id="prefix__Rectangle_142" d="M0 0H19.403V19.387H0z" class="prefix__cls-2" data-name="Rectangle 142" transform="rotate(-180 338.52 206.201)"/>
        <path id="prefix__Ligne_445" d="M0 0L104.238 0" class="prefix__cls-2" data-name="Ligne 445" transform="translate(595.454 430.283)"/>
        <path id="prefix__Rectangle_143" d="M0 0H19.403V19.387H0z" class="prefix__cls-2" data-name="Rectangle 143" transform="translate(616.544 430.283)"/>
        <path id="prefix__Rectangle_144" d="M0 0H19.403V19.387H0z" class="prefix__cls-2" data-name="Rectangle 144" transform="rotate(-180 338.52 224.835)"/>
        <path id="prefix__Ligne_446" d="M0 0L77.769 0" class="prefix__cls-2" data-name="Ligne 446" transform="translate(595.454 467.551)"/>
        <path id="prefix__Rectangle_145" d="M0 0H19.403V19.387H0z" class="prefix__cls-2" data-name="Rectangle 145" transform="translate(616.544 467.551)"/>
        <path id="prefix__Tracé_983" d="M355.257 580.585h-15.584v19.387h12.067" class="prefix__cls-2" data-name="Tracé 983" transform="translate(317.966 -113.034)"/>
        <path id="prefix__Ligne_447" d="M0 0L0 20.049" class="prefix__cls-2" data-name="Ligne 447" transform="translate(575.305 566.893)"/>
        <path id="prefix__Ligne_448" d="M0 0L0 12.021" class="prefix__cls-2" data-name="Ligne 448" transform="translate(561.172 573.576)"/>
        <path id="prefix__Ligne_449" d="M0 0L0 63.703" class="prefix__cls-2" data-name="Ligne 449" transform="translate(699.692 523.239)"/>
        <path id="prefix__Ligne_450" d="M0 0L71.469 0" class="prefix__cls-2" data-name="Ligne 450" transform="translate(699.692 552.263)"/>
        <path id="prefix__Ligne_451" d="M0 0L35.443 0" class="prefix__cls-2" data-name="Ligne 451" transform="translate(716.557 524.019)"/>
        <path id="prefix__Ligne_452" d="M0 0L15.81 0" class="prefix__cls-2" data-name="Ligne 452" transform="translate(748.715 495.539)"/>
        <path id="prefix__Ligne_453" d="M28.735 0L0 0" class="prefix__cls-2" data-name="Ligne 453" transform="translate(745.771 464.119)"/>
        <path id="prefix__Ligne_454" d="M72.82 0L0 0" class="prefix__cls-2" data-name="Ligne 454" transform="translate(699.692 435.943)"/>
        <path id="prefix__Ligne_455" d="M88.462 25.35L0 0" class="prefix__cls-2" data-name="Ligne 455" transform="translate(699.692 387.052)"/>
        <path id="prefix__Ligne_456" d="M0 27.214L0 0" class="prefix__cls-2" data-name="Ligne 456" transform="translate(688.369 283.498)"/>
        <path id="prefix__Ligne_457" d="M0 15.052L0 0" class="prefix__cls-2" data-name="Ligne 457" transform="translate(674.992 295.66)"/>
        <ellipse id="prefix__Ellipse_112" cx="8.25" cy="8.243" class="prefix__cls-2" data-name="Ellipse 112" rx="8.25" ry="8.243" transform="translate(640.236 294.226)"/>
        <path id="prefix__Tracé_984" d="M330 519.693a11.646 11.646 0 0 0 9.4-11.867c0-10.292-11.2-17.153-11.2-17.153s-11.194 6.861-11.194 17.153a11.646 11.646 0 0 0 9.4 11.867z" class="prefix__cls-2" data-name="Tracé 984" transform="translate(293.749 -208.981)"/>
        <path id="prefix__Tracé_985" d="M330.184 724.088V501.071h-71.89v197.68" class="prefix__cls-2" data-name="Tracé 985" transform="translate(230.988 -197.885)"/>
        <path id="prefix__Ligne_458" d="M0 0L0 239.926" class="prefix__cls-2" data-name="Ligne 458" transform="translate(542.895 347.016)"/>
        <path id="prefix__Ligne_459" d="M0 41.423L0 0" class="prefix__cls-2" data-name="Ligne 459" transform="translate(550.985 287.833)"/>
        <path id="prefix__Tracé_986" d="M326.589 492.828h-67.246" class="prefix__cls-2" data-name="Tracé 986" transform="translate(232.109 -206.681)"/>
        <path id="prefix__Tracé_987" d="M295.634 501.158v-16.136h-26.272v16.135" class="prefix__cls-2" data-name="Tracé 987" transform="translate(242.817 -215.011)"/>
        <path id="prefix__Ligne_460" d="M0 0L0 17.039" class="prefix__cls-2" data-name="Ligne 460" transform="translate(525.316 286.147)"/>
        <path id="prefix__Ligne_461" d="M0 4.576L0 0" class="prefix__cls-2" data-name="Ligne 461" transform="translate(525.316 265.436)"/>
        <path id="prefix__Ligne_462" d="M0 0L0 45.171" class="prefix__cls-2" data-name="Ligne 462" transform="translate(507.559 541.772)"/>
        <path id="prefix__Ligne_463" d="M0 0L0 155.558" class="prefix__cls-2" data-name="Ligne 463" transform="translate(507.559 347.016)"/>
        <path id="prefix__Ligne_464" d="M0 41.423L0 0" class="prefix__cls-2" data-name="Ligne 464" transform="translate(499.469 287.833)"/>
        <path id="prefix__Ligne_465" d="M0 0L0 47.784" class="prefix__cls-2" data-name="Ligne 465" transform="translate(489.282 539.158)"/>
        <ellipse id="prefix__Ellipse_113" cx="20.363" cy="20.347" class="prefix__cls-2" data-name="Ellipse 113" rx="20.363" ry="20.347" transform="translate(479.417 501.03)"/>
        <path id="prefix__Tracé_988" d="M278.09 606.624s-20.245 2.993-27.718 26.934v37.287" class="prefix__cls-2" data-name="Tracé 988" transform="translate(222.521 -85.248)"/>
        <path id="prefix__Tracé_989" d="M219.33 653.6a32.813 32.813 0 1 0-7.1-9.579" class="prefix__cls-2" data-name="Tracé 989" transform="translate(178.187 -95.922)"/>
        <path id="prefix__Tracé_990" d="M264.989 650.733a41.232 41.232 0 1 0-43.289-23.311" class="prefix__cls-2" data-name="Tracé 990" transform="translate(187.708 -125.774)"/>
        <path id="prefix__Tracé_991" d="M235.449 599.971c12.771 6.5 29.729 24.38 30.873 46.264" class="prefix__cls-2" data-name="Tracé 991" transform="translate(206.571 -92.347)"/>
        <path id="prefix__Tracé_992" d="M237.673 586.829s13.067 2.009 12.1 18.745" class="prefix__cls-2" data-name="Tracé 992" transform="translate(208.948 -106.371)"/>
        <path id="prefix__Tracé_993" d="M262.729 589.964s-19.5 3.622-21.439 29.415" class="prefix__cls-2" data-name="Tracé 993" transform="translate(212.814 -103.026)"/>
        <path id="prefix__Ligne_466" d="M0 0L0 70.85" class="prefix__cls-2" data-name="Ligne 466" transform="translate(472.892 516.092)"/>
        <path id="prefix__Ligne_467" d="M32.796 0L0 0" class="prefix__cls-2" data-name="Ligne 467" transform="translate(446.621 553.888)"/>
        <path id="prefix__Ligne_468" d="M14.593 0L0 0" class="prefix__cls-2" data-name="Ligne 468" transform="translate(464.824 521.376)"/>
        <path id="prefix__Tracé_994" d="M238.789 662.8v-31.7s-6.126-18.724-25.839-16.8" class="prefix__cls-2" data-name="Tracé 994" transform="translate(182.524 -77.207)"/>
        <path id="prefix__Tracé_995" d="M242.071 616.94s-11.811 2.82-16.631 12.452" class="prefix__cls-2" data-name="Tracé 995" transform="translate(195.873 -74.239)"/>
        <path id="prefix__Tracé_996" d="M226.934 608.959s-9.45 3.977-7.617 12.971" class="prefix__cls-2" data-name="Tracé 996" transform="translate(189.076 -82.756)"/>
        <path id="prefix__Ligne_469" d="M0 115.357L0 0" class="prefix__cls-2" data-name="Ligne 469" transform="translate(400.103 390.667)"/>
        <path id="prefix__Rectangle_146" d="M0 0H81.517V12.837H0z" class="prefix__cls-2" data-name="Rectangle 146" transform="translate(395.473 377.83)"/>
        <path id="prefix__Ligne_470" d="M0 0L0 61.411" class="prefix__cls-2" data-name="Ligne 470" transform="translate(472.892 390.667)"/>
        <path id="prefix__Ligne_471" d="M0 0L84.841 0" class="prefix__cls-2" data-name="Ligne 471" transform="translate(393.354 424.796)"/>
        <path id="prefix__Ligne_472" d="M0 0L20.936 0" class="prefix__cls-2" data-name="Ligne 472" transform="translate(393.354 458.701)"/>
        <path id="prefix__Ligne_473" d="M0 0L12.552 0" class="prefix__cls-2" data-name="Ligne 473" transform="translate(393.354 489.83)"/>
        <path id="prefix__Tracé_997" d="M197.447 636.6a13.637 13.637 0 0 1 5.544-13.267c4.82-3.394 11.863-3.225 17.9-3.32 2.8-.043 12.965.112 12.965.112s-3.143 14.309-13.747 21.293c-14.467 7.313-22.662-4.818-22.662-4.818z" class="prefix__cls-2" data-name="Tracé 997" transform="translate(165.778 -70.968)"/>
        <path id="prefix__Ligne_474" d="M0 50.303L0 0" class="prefix__cls-2" data-name="Ligne 474" transform="translate(352.771 536.458)"/>
        <path id="prefix__Ligne_475" d="M10.454 0L0 10.837" class="prefix__cls-2" data-name="Ligne 475" transform="translate(352.771 566.171)"/>
        <path id="prefix__Tracé_998" d="M199.572 630.129s-1-16.708-21.331-8.128c0-.001 4.247 16.165 21.331 8.128z" class="prefix__cls-2" data-name="Tracé 998" transform="translate(145.426 -71.453)"/>
        <path id="prefix__Ligne_476" d="M7.773 8.128L0 0" class="prefix__cls-2" data-name="Ligne 476" transform="translate(344.998 558.675)"/>
        <path id="prefix__Ligne_477" d="M0 0L0 15.725" class="prefix__cls-2" data-name="Ligne 477" transform="translate(384.204 571.217)"/>
        <path id="prefix__Tracé_999" d="M241.252 662.485v-55.156l-20.978-27.093h-44.348" class="prefix__cls-2" data-name="Tracé 999" transform="translate(142.951 -113.407)"/>
        <path id="prefix__Ligne_478" d="M0 0L37.238 0" class="prefix__cls-2" data-name="Ligne 478" transform="translate(325.023 477.124)"/>
        <path id="prefix__Rectangle_147" d="M0 0h35.883v23.583a3.6 3.6 0 0 1-3.6 3.6H3.6a3.6 3.6 0 0 1-3.6-3.6V0z" class="prefix__cls-2" data-name="Rectangle 147" transform="translate(334.333 509.275)"/>
        <path id="prefix__Ligne_479" d="M0 13.366L0 0" class="prefix__cls-2" data-name="Ligne 479" transform="translate(343.642 495.909)"/>
        <path id="prefix__Ligne_480" d="M0 13.366L0 0" class="prefix__cls-2" data-name="Ligne 480" transform="translate(360.906 495.909)"/>
        <ellipse id="prefix__Ellipse_114" cx="9.245" cy="9.237" class="prefix__cls-2" data-name="Ellipse 114" rx="9.245" ry="9.237" transform="translate(397.521 568.468)"/>
        <path id="prefix__Ligne_481" d="M0 11.987L0 0" class="prefix__cls-2" data-name="Ligne 481" transform="translate(399.63 559.845)"/>
        <path id="prefix__Ligne_482" d="M0 0L0 3.184" class="prefix__cls-2" data-name="Ligne 482" transform="translate(399.63 583.578)"/>
        <path id="prefix__Tracé_1000" d="M210.293 738.118V544.673l-66.523 14.811v178.634" class="prefix__cls-2" data-name="Tracé 1000" transform="translate(108.584 -151.357)"/>
        <path id="prefix__Ligne_483" d="M0 11.199L53.508 0" class="prefix__cls-2" data-name="Ligne 483" transform="translate(259.223 405.237)"/>
        <path id="prefix__Rectangle_148" d="M0 0H14.462V19.146H0z" class="prefix__cls-2" data-name="Rectangle 148" transform="translate(266.454 433.595)"/>
        <path id="prefix__Rectangle_149" d="M0 0H14.462V19.146H0z" class="prefix__cls-2" data-name="Rectangle 149" transform="translate(290.315 433.595)"/>
        <path id="prefix__Rectangle_150" d="M0 0H14.462V19.146H0z" class="prefix__cls-2" data-name="Rectangle 150" transform="translate(266.454 460.326)"/>
        <path id="prefix__Rectangle_151" d="M0 0H14.462V19.146H0z" class="prefix__cls-2" data-name="Rectangle 151" transform="translate(290.315 460.326)"/>
        <path id="prefix__Rectangle_152" d="M0 0H14.462V19.146H0z" class="prefix__cls-2" data-name="Rectangle 152" transform="translate(266.454 487.059)"/>
        <path id="prefix__Rectangle_153" d="M0 0H14.462V19.146H0z" class="prefix__cls-2" data-name="Rectangle 153" transform="translate(290.315 487.059)"/>
        <path id="prefix__Rectangle_154" d="M0 0H14.462V19.146H0z" class="prefix__cls-2" data-name="Rectangle 154" transform="translate(266.454 513.79)"/>
        <path id="prefix__Rectangle_155" d="M0 0H14.462V19.146H0z" class="prefix__cls-2" data-name="Rectangle 155" transform="translate(290.315 513.79)"/>
        <path id="prefix__Ligne_484" d="M0 0L0 32.82" class="prefix__cls-2" data-name="Ligne 484" transform="translate(228.251 516.259)"/>
        <path id="prefix__Ligne_485" d="M0 0L0 32.82" class="prefix__cls-2" data-name="Ligne 485" transform="translate(215.839 516.259)"/>
        <path id="prefix__Ligne_486" d="M0 0L0 32.82" class="prefix__cls-2" data-name="Ligne 486" transform="translate(203.426 516.259)"/>
        <path id="prefix__Ligne_487" d="M0 0L0 32.82" class="prefix__cls-2" data-name="Ligne 487" transform="translate(191.013 516.259)"/>
        <path id="prefix__Ligne_488" d="M0 0L0 32.82" class="prefix__cls-2" data-name="Ligne 488" transform="translate(178.6 516.259)"/>
        <path id="prefix__Ligne_489" d="M0 0L0 32.82" class="prefix__cls-2" data-name="Ligne 489" transform="translate(166.187 516.259)"/>
        <path id="prefix__Ligne_490" d="M0 0L0 13.366" class="prefix__cls-2" data-name="Ligne 490" transform="translate(153.774 516.259)"/>
        <path id="prefix__Tracé_1001" d="M100.314 657.3l3.736-113.671h15.787l3.3 113.671" class="prefix__cls-2" data-name="Tracé 1001" transform="translate(62.137 -152.476)"/>
        <rect id="prefix__Rectangle_156" width="16.549" height="8.875" class="prefix__cls-2" data-name="Rectangle 156" rx="2.147" transform="translate(166.187 433.595)"/>
        <path id="prefix__Tracé_1002" d="M120.6 663.2l3.74-125.11h15.787l3.3 125.111" class="prefix__cls-2" data-name="Tracé 1002" transform="translate(83.823 -158.381)"/>
        <rect id="prefix__Rectangle_157" width="16.549" height="8.875" class="prefix__cls-2" data-name="Rectangle 157" rx="2.147" transform="translate(208.163 433.595)"/>
        <path id="prefix__Tracé_1003" d="M204.91 598.614H86.566v22.879" class="prefix__cls-2" data-name="Tracé 1003" transform="translate(47.444 -93.795)"/>
        <path id="prefix__Tracé_1004" d="M117.966 549.449s-24.427 7.706-23.466-20.471c0 0 26.441-4.335 23.466 20.471z" class="prefix__cls-2" data-name="Tracé 1004" transform="translate(55.897 -168.415)"/>
        <path id="prefix__Tracé_1005" d="M105.967 545.191s14.283 4.508 13.72-11.969c0 0-15.46-2.536-13.72 11.969z" class="prefix__cls-2" data-name="Tracé 1005" transform="translate(68.033 -163.758)"/>
        <path id="prefix__Ligne_491" d="M0 0L15.75 13.486" class="prefix__cls-2" data-name="Ligne 491" transform="translate(158.113 367.547)"/>
        <path id="prefix__Tracé_1006" d="M139.249 544.194s-24.426 7.706-23.462-20.471c-.001 0 26.437-4.335 23.462 20.471z" class="prefix__cls-2" data-name="Tracé 1006" transform="translate(78.645 -174.023)"/>
        <path id="prefix__Tracé_1007" d="M127.25 539.938s14.285 4.506 13.72-11.971c0 0-15.46-2.537-13.72 11.971z" class="prefix__cls-2" data-name="Tracé 1007" transform="translate(90.78 -169.366)"/>
        <path id="prefix__Ligne_492" d="M0 0L15.75 13.486" class="prefix__cls-2" data-name="Ligne 492" transform="translate(202.144 356.685)"/>
        <path id="prefix__Tracé_1008" d="M65.6 657.974h43.348a8.527 8.527 0 0 0 8.532-8.525v-36.776a8.529 8.529 0 0 0-8.532-8.525h-49.1a8.529 8.529 0 0 0-8.532 8.525v16.442" class="prefix__cls-2" data-name="Tracé 1008" transform="translate(9.776 -87.89)"/>
        <path id="prefix__Ligne_493" d="M44.59 0L0 0" class="prefix__cls-2" data-name="Ligne 493" transform="translate(84.841 578.031)"/>
        <path id="prefix__Tracé_1009" d="M83.3 609.682h20.734a5.87 5.87 0 0 1 4.872 2.6l15.851 23.594v18.344a5.8 5.8 0 0 1-5.8 5.8h-12.031" class="prefix__cls-2" data-name="Tracé 1009" transform="translate(43.957 -81.984)"/>
        <path id="prefix__Ligne_494" d="M0 0L23.819 0" class="prefix__cls-2" data-name="Ligne 494" transform="translate(132.805 535.886)"/>
        <path id="prefix__Tracé_1010" d="M90.178 613.643V628.8a5.561 5.561 0 0 0 5.563 5.559h21.673" class="prefix__cls-2" data-name="Tracé 1010" transform="translate(51.304 -77.757)"/>
        <g id="prefix__Groupe_443" data-name="Groupe 443" transform="translate(87.018 534.923)">
            <path id="prefix__Ligne_495" d="M0 8.85L7.472 0" class="prefix__cls-2" data-name="Ligne 495" transform="translate(.715)"/>
            <path id="prefix__Ligne_496" d="M0 0L5.583 10.147" class="prefix__cls-2" data-name="Ligne 496" transform="translate(11.45 6.046)"/>
            <path id="prefix__Ligne_497" d="M9.519 0.041L0 0" class="prefix__cls-2" data-name="Ligne 497" transform="translate(0 16.409)"/>
        </g>
        <g id="prefix__Groupe_446" data-name="Groupe 446" transform="translate(40.854 541.225)">
            <g id="prefix__Groupe_444" data-name="Groupe 444">
                <path id="prefix__Ligne_498" d="M40.492 0L0 0" class="prefix__cls-2" data-name="Ligne 498" transform="translate(0 7.086)"/>
                <path id="prefix__Ligne_499" d="M3.615 37.287L0 0" class="prefix__cls-2" data-name="Ligne 499" transform="translate(4.158 7.086)"/>
                <path id="prefix__Ligne_500" d="M0 0L2.712 24.203" class="prefix__cls-2" data-name="Ligne 500" transform="translate(11.388 13.566)"/>
                <path id="prefix__Ligne_501" d="M0 0L0 25.106" class="prefix__cls-2" data-name="Ligne 501" transform="translate(20.246 12.663)"/>
                <path id="prefix__Tracé_1011" d="M48.785 621.836a5.615 5.615 0 0 1 11.229 0" class="prefix__cls-2" data-name="Tracé 1011" transform="translate(-33.791 -616.226)"/>
            </g>
            <g id="prefix__Groupe_445" data-name="Groupe 445" transform="translate(26.392 7.086)">
                <path id="prefix__Ligne_502" d="M0 37.287L3.615 0" class="prefix__cls-2" data-name="Ligne 502" transform="translate(6.327)"/>
                <path id="prefix__Ligne_503" d="M2.712 0L0 24.203" class="prefix__cls-2" data-name="Ligne 503" transform="translate(0 6.481)"/>
            </g>
        </g>
        <path id="prefix__Tracé_1012" d="M58.227 646.869a9.269 9.269 0 0 0 5.567-16.686" class="prefix__cls-2" data-name="Tracé 1012" transform="translate(17.154 -60.107)"/>
        <ellipse id="prefix__Ellipse_115" cx="9.942" cy="9.934" class="prefix__cls-2" data-name="Ellipse 115" rx="9.942" ry="9.934" transform="translate(130.453 566.893)"/>
        <path id="prefix__Tracé_1013" d="M131.087 586.538c6.548-.969 21.743-4.376 26.239-15.419" class="prefix__cls-1" data-name="Tracé 1013" transform="translate(95.028 -123.135)"/>
        <path id="prefix__Ligne_504" d="M0 0L19.154 0" class="prefix__cls-1" data-name="Ligne 504" transform="translate(185.274 463.758)"/>
        <path id="prefix__Tracé_1014" d="M58.227 631.251V620.01a41.277 41.277 0 0 1 41.293-41.26h47.125" class="prefix__cls-1" data-name="Tracé 1014" transform="translate(17.154 -114.992)"/>
        <path id="prefix__Tracé_1015" d="M226.288 547.711a8.184 8.184 0 0 0 6.61-8.341c0-7.233-7.87-12.057-7.87-12.057s-7.87 4.825-7.87 12.057a8.184 8.184 0 0 0 6.61 8.341z" class="prefix__cls-2" data-name="Tracé 1015" transform="translate(187.021 -169.882)"/>
        <path id="prefix__Tracé_1016" d="M238.89 550.073a10.021 10.021 0 0 0 8.1-10.212c0-8.858-9.637-14.761-9.637-14.761s-9.634 5.9-9.634 14.761a10.02 10.02 0 0 0 8.093 10.212z" class="prefix__cls-2" data-name="Tracé 1016" transform="translate(198.304 -172.243)"/>
        <path id="prefix__Ligne_505" d="M0 0L1132.339 0" class="prefix__cls-2" data-name="Ligne 505" transform="translate(0 586.942)"/>
    </g>
</svg>
